<svg width="58" height="57" viewBox="0 0 58 57" fill="none" xmlns="http://www.w3.org/2000/svg">
<path d="M46.1008 15.2605C48.0981 15.2605 49.7173 13.6413 49.7173 11.644C49.7173 9.64673 48.0981 8.02759 46.1008 8.02759C44.1035 8.02759 42.4844 9.64673 42.4844 11.644C42.4844 13.6413 44.1035 15.2605 46.1008 15.2605Z" stroke="#FF0000" stroke-width="1.5" stroke-miterlimit="10" stroke-linejoin="round"/>
<path d="M29.3634 35.6146L28.2507 36.7274L24.0315 36.9129L23.5678 39.2775L21.6669 39.4166L20.5078 40.5757L20.8323 43.543L18.6532 44.2849L18.0968 46.3249L14.5731 46.5567L14.0167 48.9213L11.2348 49.9877L10.6784 53.5114L9.14839 53.7896L8.73111 55.4124L0.802734 56.2006L1.35911 49.5241L25.1906 25.6926C26.6279 24.2553 27.787 22.6325 28.6679 20.8243L29.4561 19.2479C27.8797 14.426 29.0389 8.86218 32.8871 5.01391C38.59 -0.688953 47.9093 -0.45713 53.334 5.66302C58.1096 11.0877 57.9241 19.387 52.9631 24.5798C49.4857 28.1963 44.5711 29.5872 39.9809 28.6136C39.2855 28.4745 38.59 28.6136 37.9873 28.9845C37.7554 29.1236 37.5236 29.3554 37.3845 29.5872C36.9209 30.2363 37.1527 31.1636 37.3382 31.72C37.4309 31.9982 37.3845 32.2764 37.1527 32.4618L32.6553 36.9592C32.3771 37.2374 31.9135 37.2374 31.6817 36.9592L30.3371 35.6146C30.0589 35.3828 29.6416 35.3828 29.3634 35.6146Z" stroke="#FF0000" stroke-width="1.5" stroke-miterlimit="10" stroke-linejoin="round"/>
<path d="M29.4561 19.2479L31.8207 18.7843C32.1452 18.7379 32.4698 18.8307 32.7016 19.0625L38.8681 25.229C39.0999 25.4608 39.1927 25.739 39.1463 26.0636L38.8681 28.6136" stroke="#FF0000" stroke-width="1.5" stroke-miterlimit="10" stroke-linejoin="round"/>
<path d="M0.802734 56.2006L32.8871 24.1162" stroke="#FF0000" stroke-width="1.5" stroke-miterlimit="10" stroke-linecap="round" stroke-linejoin="round"/>
</svg>
