<svg width="59" height="59" viewBox="0 0 59 59" fill="none" xmlns="http://www.w3.org/2000/svg">
<path d="M47.0232 21.8539L52.1158 20.4865C53.1532 20.2978 53.7662 19.2133 53.4361 18.2231L50.937 10.6313C50.5598 9.54674 49.711 8.69797 48.6264 8.32074L41.0347 5.82158C40.0444 5.4915 38.9599 6.10451 38.7713 7.14189L37.4038 12.2345L47.0232 21.8539Z" stroke="#FF0000" stroke-width="2" stroke-miterlimit="10" stroke-linejoin="round"/>
<path d="M34.1032 30.2946L6.8482 57.5496L1.80273 52.5041L5.15066 49.1562L6.28236 48.0245L9.15875 50.9009L11.2335 48.8261L9.96036 47.5529L11.9408 45.5725L13.214 46.8456L16.9391 43.1205L14.0628 40.2441L15.4302 38.8766L18.3066 41.753L24.4366 35.623L21.5602 32.7466L29.0577 25.2491L34.8576 5.02009C35.6593 2.37947 38.4885 0.917698 41.082 1.81362L51.1729 5.25586C52.5404 5.7274 53.6249 6.81194 54.0964 8.1794L57.5387 18.2703C58.4346 20.8638 56.9728 23.693 54.3322 24.4947L34.1032 30.2946Z" stroke="#FF0000" stroke-width="2" stroke-miterlimit="10" stroke-linejoin="round"/>
<path d="M22.4562 33.6426L16.3262 39.7726" stroke="#FF0000" stroke-width="2" stroke-miterlimit="10" stroke-linejoin="round"/>
</svg>
