<svg width="59" height="58" viewBox="0 0 59 58" fill="none" xmlns="http://www.w3.org/2000/svg">
<g clip-path="url(#clip0_177_80)">
<path fill-rule="evenodd" clip-rule="evenodd" d="M35.9007 28.3672C34.7163 29.3361 35.2184 30.5619 35.2184 30.5619C34.1226 31.6577 33.0149 32.8008 31.9014 33.876C31.671 34.0975 31.7921 34.0945 31.4849 33.8021C31.1541 33.4831 30.8646 33.1375 30.4984 32.8628C30.3536 32.978 29.5532 33.7401 29.5295 33.7489C29.4232 33.7903 27.4649 33.6456 27.1843 33.6278L26.7146 33.5983L26.4754 35.341L25.2141 35.2199C25.1462 35.2997 24.5672 35.979 24.5613 36.0027C24.5495 36.044 24.8094 37.8606 24.8213 38.15C24.8272 38.3184 24.8597 38.2593 24.6145 38.2948C24.1655 38.3597 23.7195 38.3538 23.2469 38.4247C23.0992 38.8353 22.987 39.302 22.8718 39.7273C22.1718 39.748 21.4688 39.7687 20.7687 39.7864C20.6299 40.4067 20.4911 41.0299 20.3463 41.6502C19.7881 41.7861 18.899 41.9603 18.3969 42.1583C18.3289 42.8199 18.4146 43.706 18.4146 44.409C18.4146 44.601 18.4294 44.5331 18.0779 44.4681C17.7736 44.412 17.4664 44.3529 17.1622 44.2968C17.0618 44.7959 16.9732 45.301 16.8816 45.8002L16.8609 45.9154L11.9341 46.3348L12.2944 41.7063C12.2944 41.7063 28.0999 25.7798 29.0008 24.8198C29.9017 23.8569 30.1557 22.5927 30.1557 22.5927C29.8692 21.7154 29.7215 20.8056 29.7215 19.8309C29.7215 14.8745 33.7416 10.8545 38.6979 10.8545C43.6543 10.8545 47.6744 14.8745 47.6744 19.8309C47.6744 24.7873 43.6543 28.8073 38.6979 28.8073C37.7232 28.8073 36.781 28.6508 35.9037 28.3643L35.9007 28.3672ZM40.8985 15.3294C42.207 15.3294 43.2674 16.3898 43.2674 17.6983C43.2674 19.0068 42.207 20.0672 40.8985 20.0672C39.59 20.0672 38.5296 19.0068 38.5296 17.6983C38.5296 16.3898 39.59 15.3294 40.8985 15.3294Z" stroke="#E7322D" stroke-width="1.5" stroke-miterlimit="22.93"/>
<path d="M29.8013 56.2418C45.0687 56.2418 57.4454 43.8651 57.4454 28.5977C57.4454 13.3303 45.0687 0.953613 29.8013 0.953613C14.5339 0.953613 2.15723 13.3303 2.15723 28.5977C2.15723 43.8651 14.5339 56.2418 29.8013 56.2418Z" stroke="#E7322D" stroke-width="1.5" stroke-miterlimit="22.93"/>
<path d="M49.3492 48.1455L10.2534 9.0498" stroke="#E7322D" stroke-width="1.5" stroke-miterlimit="22.93"/>
</g>
<defs>
<clipPath id="clip0_177_80">
<rect width="58" height="57" fill="white" transform="translate(0.802734 0.0495605)"/>
</clipPath>
</defs>
</svg>
