<svg width="58" height="59" viewBox="0 0 58 59" fill="none" xmlns="http://www.w3.org/2000/svg">
<path d="M36.8837 29.4891L46.1566 29.1815C47.1234 29.1376 48.0024 28.742 48.6616 28.0828L55.9129 20.8315C57.0995 19.6449 57.0995 17.7552 55.9129 16.5686L48.8374 9.49306L41.7618 2.41752C40.5753 1.23094 38.6855 1.23094 37.4989 2.41752L30.2916 9.7128C29.6324 10.372 29.2368 11.2949 29.1929 12.2178L28.8853 21.4907" stroke="#FF0000" stroke-width="1.5" stroke-miterlimit="10" stroke-linejoin="round"/>
<path d="M34.7741 24.6113L37.7186 27.5558C38.0262 27.8634 38.0262 28.3908 37.7186 28.6984L28.5775 37.8834L27.347 36.6529C27.2591 36.565 27.0833 36.565 26.9954 36.6529L26.2483 37.4C26.1604 37.4879 26.1165 37.5758 26.1165 37.7076L25.9846 39.07L10.603 54.4516C10.4712 54.5834 10.2954 54.6713 10.1196 54.7153L8.97696 54.935C8.80117 54.979 8.62538 55.0669 8.49353 55.1987L6.07643 57.5719L3.96695 55.4624L2.91221 54.4076L0.802734 52.2982L3.26379 49.8371C3.39563 49.7053 3.48353 49.5295 3.52748 49.3537L3.74721 48.2111C3.79116 48.0353 3.87905 47.8595 4.0109 47.7276L19.3925 32.346L20.7549 32.2142C20.8867 32.2142 20.9746 32.1702 21.0625 32.0823L21.8096 31.3352C21.8975 31.2473 21.8975 31.0716 21.8096 30.9837L20.5791 29.7531L29.6762 20.656C29.9838 20.3484 30.5112 20.3484 30.8188 20.656L33.7633 23.6005L34.7741 24.6113Z" stroke="#FF0000" stroke-width="1.5" stroke-miterlimit="10" stroke-linejoin="round"/>
<path d="M44.7941 16.6124C46.4688 16.6124 47.8265 15.2547 47.8265 13.58C47.8265 11.9052 46.4688 10.5476 44.7941 10.5476C43.1194 10.5476 41.7617 11.9052 41.7617 13.58C41.7617 15.2547 43.1194 16.6124 44.7941 16.6124Z" stroke="#FF0000" stroke-width="1.5" stroke-miterlimit="10" stroke-linejoin="round"/>
<path d="M29.1497 29.2253L3.44043 54.9346" stroke="#FF0000" stroke-width="1.5" stroke-miterlimit="10" stroke-linecap="round" stroke-linejoin="round"/>
<path d="M30.4666 30.5L4.75732 56.2092" stroke="#FF0000" stroke-width="1.5" stroke-miterlimit="10" stroke-linecap="round" stroke-linejoin="round"/>
<path d="M18.6456 37.3116C19.1795 37.3116 19.6124 36.8787 19.6124 36.3448C19.6124 35.8108 19.1795 35.3779 18.6456 35.3779C18.1116 35.3779 17.6787 35.8108 17.6787 36.3448C17.6787 36.8787 18.1116 37.3116 18.6456 37.3116Z" fill="#FF0000"/>
<path d="M12.8443 43.1131C13.3783 43.1131 13.8111 42.6803 13.8111 42.1463C13.8111 41.6123 13.3783 41.1794 12.8443 41.1794C12.3103 41.1794 11.8774 41.6123 11.8774 42.1463C11.8774 42.6803 12.3103 43.1131 12.8443 43.1131Z" fill="#FF0000"/>
<path d="M15.7447 40.0802C16.2058 40.0802 16.5797 39.7063 16.5797 39.2452C16.5797 38.784 16.2058 38.4102 15.7447 38.4102C15.2835 38.4102 14.9097 38.784 14.9097 39.2452C14.9097 39.7063 15.2835 40.0802 15.7447 40.0802Z" fill="#FF0000"/>
<path d="M9.98832 45.8814C10.4495 45.8814 10.8233 45.5076 10.8233 45.0464C10.8233 44.5853 10.4495 44.2114 9.98832 44.2114C9.52716 44.2114 9.15332 44.5853 9.15332 45.0464C9.15332 45.5076 9.52716 45.8814 9.98832 45.8814Z" fill="#FF0000"/>
</svg>
