<svg width="58" height="57" viewBox="0 0 58 57" fill="none" xmlns="http://www.w3.org/2000/svg">
<path d="M39.3353 20.6674C43.4396 18.8433 47.461 20.7918 48.8706 21.5795C49.2852 21.8282 49.8241 21.7453 50.1972 21.3722L56.2915 15.2779C56.9134 14.656 57.0792 13.7439 56.7061 12.9563C56.0428 11.5052 54.6747 9.10067 51.7312 6.15717C48.8291 3.25512 46.3831 1.84555 44.9735 1.22369C44.1858 0.850567 43.2738 1.0164 42.6519 1.63827L36.5576 7.73256C36.2259 8.06423 36.143 8.60318 36.3503 9.05921C37.138 10.4688 39.0451 14.4902 37.2209 18.5945" stroke="#FF0000" stroke-width="1.5" stroke-miterlimit="10" stroke-linejoin="round"/>
<path d="M49.7831 12.2927C48.415 10.1783 46.8811 8.89314 45.7617 8.18836C45.0569 7.73232 44.9325 6.73734 45.5544 6.15693C45.969 5.74235 46.6323 5.65943 47.1298 5.94964C48.2906 6.61296 50.405 8.06399 52.0633 10.966C52.3535 11.4635 52.2706 12.1269 51.856 12.5414L51.8145 12.5829C51.2341 13.1633 50.2391 13.0389 49.7831 12.2927Z" stroke="#FF0000" stroke-width="1.5" stroke-miterlimit="10" stroke-linejoin="round"/>
<path d="M3.10128 54.8701C2.52087 54.2897 2.52087 53.3776 3.05982 52.7972L39.2525 16.6045C39.8329 16.0241 40.745 16.0241 41.3254 16.6045L41.3668 16.646C41.9473 17.2264 41.9473 18.1384 41.3668 18.7188L5.21563 54.8701C4.59376 55.409 3.64023 55.409 3.10128 54.8701Z" stroke="#FF0000" stroke-width="1.5" stroke-miterlimit="10" stroke-linejoin="round"/>
<path d="M14.2113 41.6451L10.7703 38.1626L9.69238 39.2405L8.61447 38.1626L6.87325 39.9453L8.24135 41.3134L8.40719 41.4792L7.12199 42.7644L5.0491 40.6915L3.72245 41.9767L4.42723 42.6815L4.63452 42.9302L2.43726 45.1275L3.76391 46.4956L2.85184 47.4077L1.85685 46.4542L0.90332 47.4077L4.67598 51.1804" stroke="#FF0000" stroke-width="1.5" stroke-miterlimit="10" stroke-linejoin="round"/>
<path d="M12.6373 40.0278L9.61084 43.0957" stroke="#FF0000" stroke-width="1.5" stroke-miterlimit="10" stroke-linecap="round" stroke-linejoin="round"/>
<path d="M6.12696 46.5786L3.05908 49.605" stroke="#FF0000" stroke-width="1.5" stroke-miterlimit="10" stroke-linecap="round" stroke-linejoin="round"/>
<path d="M6.74854 53.2531L9.48475 56.0307L10.3554 55.1601L11.3089 56.0722L12.5112 54.9114L11.9722 54.3724L12.7599 53.5847L11.7649 52.6312L12.8428 51.5948L15.0401 53.792L16.4911 52.2995L15.3718 51.1802L17.3203 49.2317L15.9522 47.8636L17.0301 46.7442L17.4032 47.1173L18.108 47.8221L19.2688 46.6613L16.2838 43.7178" stroke="#FF0000" stroke-width="1.5" stroke-miterlimit="10" stroke-linejoin="round"/>
</svg>
