<svg width="58" height="59" viewBox="0 0 58 59" fill="none" xmlns="http://www.w3.org/2000/svg">
<path d="M53.1607 5.0976L50.939 2.87595C50.8108 2.74778 50.5972 2.61961 50.4263 2.57688L45.1285 1.46606C44.7867 1.38061 44.4022 1.50878 44.1459 1.76513L37.6518 8.3019C37.3955 8.55824 37.2673 8.94276 37.3955 9.32728L39.1472 15.9922" stroke="#FF0000" stroke-width="1.5" stroke-miterlimit="10" stroke-linejoin="round"/>
<path d="M42.2661 19.1111L48.9311 20.8628C49.3156 20.9483 49.7001 20.8628 49.9564 20.6065L51.9645 18.5984C51.4518 17.9576 51.4945 17.0604 52.0926 16.4622C52.6908 15.8641 53.588 15.8641 54.2288 16.3341L56.4932 14.0697C56.7496 13.8134 56.835 13.4716 56.7923 13.087L55.6814 7.78927C55.6387 7.57565 55.5533 7.40475 55.3824 7.27658L53.1607 5.05493" stroke="#FF0000" stroke-width="1.5" stroke-miterlimit="10" stroke-linejoin="round"/>
<path d="M49.8283 10.7372C51.1261 10.7372 52.1782 9.68519 52.1782 8.38742C52.1782 7.08965 51.1261 6.0376 49.8283 6.0376C48.5306 6.0376 47.4785 7.08965 47.4785 8.38742C47.4785 9.68519 48.5306 10.7372 49.8283 10.7372Z" stroke="#FF0000" stroke-width="1.5" stroke-miterlimit="10" stroke-linejoin="round"/>
<path d="M14.5811 40.5158L39.1474 15.9495H39.1901C40.899 15.9922 42.3089 17.3594 42.4798 19.0683V19.2819L17.9135 43.8482" stroke="#FF0000" stroke-width="1.5" stroke-miterlimit="10" stroke-linejoin="round"/>
<path d="M7.48872 46.6252C8.51409 47.6506 8.55682 49.3169 7.53144 50.3422C6.50607 51.3676 4.88255 51.3249 3.81445 50.2995" stroke="#FF0000" stroke-width="1.5" stroke-miterlimit="10" stroke-linejoin="round"/>
<path d="M4.28441 55.811C4.92149 55.811 5.43796 55.2945 5.43796 54.6575C5.43796 54.0204 4.92149 53.5039 4.28441 53.5039C3.64732 53.5039 3.13086 54.0204 3.13086 54.6575C3.13086 55.2945 3.64732 55.811 4.28441 55.811Z" stroke="#FF0000" stroke-width="1.5" stroke-miterlimit="10" stroke-linejoin="round"/>
<path d="M8.51409 52.1795C8.85589 51.8377 9.36857 51.7523 9.79581 51.9232C10.0949 52.0513 10.4367 51.9659 10.6503 51.7095L18.2124 44.1901L14.0682 40.0459L10.6503 43.4638C10.4794 43.6347 10.394 43.9338 10.394 44.1901C10.4367 44.7455 10.2231 45.3864 9.71037 45.8991C9.19768 46.4118 8.55682 46.6254 8.00141 46.5827C7.74506 46.5399 7.48872 46.6254 7.2751 46.839L3.81445 50.2997C3.64356 50.4706 3.55811 50.7696 3.55811 51.026C3.60083 51.5814 3.38721 52.2222 2.87453 52.7349C2.61818 52.9913 2.23367 53.1194 1.89187 53.2049C1.16557 53.3758 0.695602 54.0594 0.823774 54.7857C1.08012 56.1528 2.95997 58.3745 4.92528 57.4346L5.05345 57.3491L8.00141 54.4012C8.21503 54.1875 8.3432 53.8457 8.21503 53.5467C8.08685 53.034 8.1723 52.5213 8.51409 52.1795Z" stroke="#FF0000" stroke-width="1.5" stroke-miterlimit="10" stroke-linejoin="round"/>
</svg>
