<svg width="77" height="77" viewBox="0 0 77 77" fill="none" xmlns="http://www.w3.org/2000/svg">
<g clip-path="url(#clip0_25_5558)">
<mask id="mask0_25_5558" style="mask-type:luminance" maskUnits="userSpaceOnUse" x="0" y="0" width="77" height="77">
<path d="M0 7.62939e-06H77V77H0V7.62939e-06Z" fill="white"/>
</mask>
<g mask="url(#mask0_25_5558)">
<path d="M38.4865 58.2584L30.4165 52.3088C29.8962 51.9239 29.2796 51.7209 28.6344 51.7209C28.1727 51.7209 27.711 51.8292 27.2974 52.0322C26.8643 52.2457 26.4989 52.5525 26.2116 52.9436C25.7349 53.5902 25.5377 54.3843 25.6582 55.1784C25.7785 55.9724 26.1996 56.6717 26.8448 57.1485L26.8463 57.15L27.5555 57.6727C25.7925 57.6642 24.191 57.6541 22.8549 57.6448C21.7601 57.6372 20.6487 57.6282 19.5493 57.6192V40.5529C19.5493 38.8941 18.2003 37.5451 16.5415 37.5451C14.8827 37.5451 13.5337 38.8941 13.5337 40.5529V60.5999C13.5337 61.3985 13.842 62.1505 14.4029 62.7174C14.9624 63.2829 15.7113 63.5987 16.5099 63.6078H16.5263C17.2216 63.6147 21.596 63.6581 27.2459 63.6872L26.7801 64.0168C26.1244 64.48 25.6881 65.1718 25.5529 65.9644C25.4161 66.7554 25.598 67.5525 26.0612 68.2082C26.6252 69.0038 27.5441 69.479 28.52 69.479C29.1442 69.479 29.7428 69.288 30.2541 68.9269L38.4384 63.1355C39.2249 62.5789 39.6987 61.6722 39.7092 60.7097C39.7181 59.7457 39.2609 58.8298 38.4865 58.2584Z" stroke="#CF182A" stroke-width="2" stroke-miterlimit="10" stroke-linecap="round" stroke-linejoin="round"/>
<path d="M62.594 14.1789C62.0345 13.6118 61.2856 13.2961 60.487 13.287H60.4704C59.7753 13.2801 55.4011 13.2372 49.7515 13.2088L50.2168 12.8794C50.8727 12.4149 51.3086 11.7231 51.444 10.9319C51.5794 10.1394 51.399 9.34237 50.9357 8.68652C50.3717 7.89095 49.4528 7.41572 48.4768 7.41572C47.8527 7.41572 47.2541 7.60686 46.7428 7.9693L38.5585 13.7608C37.772 14.3156 37.2983 15.2225 37.2877 16.1867C37.2787 17.1492 37.7359 18.065 38.5104 18.6365L46.5805 24.5875C47.1007 24.971 47.7173 25.1738 48.3625 25.1738C48.8242 25.1738 49.2859 25.0671 49.6995 24.8625C50.1311 24.649 50.498 24.3422 50.7853 23.9512C51.262 23.3046 51.459 22.5104 51.3387 21.7164C51.2199 20.9225 50.7975 20.223 50.1523 19.7464C50.1506 19.7464 50.1506 19.7464 50.1506 19.7449L49.4418 19.2223C51.2055 19.2309 52.8065 19.2406 54.142 19.2501C55.3196 19.259 56.4325 19.2665 57.4476 19.2757V36.3435C57.4476 38.0007 58.7966 39.3513 60.4554 39.3513C62.1144 39.3513 63.4632 38.0007 63.4632 36.3435V16.2948C63.4632 15.4964 63.1549 14.7444 62.594 14.1789Z" stroke="#CF182A" stroke-width="2" stroke-miterlimit="10" stroke-linecap="round" stroke-linejoin="round"/>
<path d="M27.0688 31.5806H6.01416C3.52249 31.5806 1.50244 29.5605 1.50244 27.0688V6.01416C1.50244 3.52234 3.52249 1.50244 6.01416 1.50244H27.0688C29.5607 1.50244 31.5806 3.52234 31.5806 6.01416V27.0688C31.5806 29.5605 29.5607 31.5806 27.0688 31.5806Z" stroke="#CF182A" stroke-width="2" stroke-miterlimit="10" stroke-linecap="round" stroke-linejoin="round"/>
<path d="M47.1373 53.4703C50.9951 46.1147 60.0853 43.2793 67.4409 47.1371C74.7965 50.9949 77.632 60.0851 73.7742 67.4407C69.9163 74.7963 60.826 77.6318 53.4705 73.774C46.1149 69.9162 43.2795 60.8258 47.1373 53.4703Z" stroke="#CF182A" stroke-width="2" stroke-miterlimit="10" stroke-linecap="round" stroke-linejoin="round"/>
</g>
</g>
<defs>
<clipPath id="clip0_25_5558">
<rect width="77" height="77" fill="white"/>
</clipPath>
</defs>
</svg>
