<svg width="70" height="50" viewBox="0 0 70 50" fill="none" xmlns="http://www.w3.org/2000/svg">
<path d="M35 49.375C16.1831 49.375 0.875 38.4407 0.875 25C0.875 11.5593 16.1831 0.625 35 0.625C53.8169 0.625 69.125 11.5593 69.125 25C69.125 38.4407 53.8175 49.375 35 49.375ZM35 3.0625C17.5275 3.0625 3.3125 12.9042 3.3125 25C3.3125 37.0958 17.5275 46.9375 35 46.9375C52.4725 46.9375 66.6875 37.0958 66.6875 25C66.6875 12.9042 52.4731 3.0625 35 3.0625Z" fill="#CF182A"/>
<path d="M55.7188 28.6563C54.9956 28.6563 54.2887 28.4418 53.6874 28.0401C53.0862 27.6383 52.6176 27.0673 52.3408 26.3992C52.0641 25.7311 51.9917 24.9959 52.1328 24.2867C52.2738 23.5775 52.6221 22.926 53.1334 22.4146C53.6447 21.9033 54.2962 21.5551 55.0055 21.414C55.7147 21.2729 56.4498 21.3453 57.1179 21.6221C57.786 21.8988 58.3571 22.3674 58.7588 22.9687C59.1606 23.57 59.375 24.2769 59.375 25C59.3739 25.9694 58.9884 26.8987 58.3029 27.5842C57.6175 28.2696 56.6881 28.6552 55.7188 28.6563ZM55.7188 23.7813C55.4777 23.7813 55.2421 23.8527 55.0417 23.9866C54.8412 24.1206 54.685 24.3109 54.5928 24.5336C54.5005 24.7563 54.4764 25.0014 54.5234 25.2378C54.5704 25.4742 54.6865 25.6913 54.857 25.8618C55.0274 26.0322 55.2446 26.1483 55.481 26.1953C55.7174 26.2424 55.9624 26.2182 56.1851 26.126C56.4078 26.0337 56.5982 25.8775 56.7321 25.6771C56.866 25.4767 56.9375 25.241 56.9375 25C56.9373 24.6768 56.8088 24.3669 56.5803 24.1384C56.3518 23.9099 56.0419 23.7814 55.7188 23.7813Z" fill="#CF182A"/>
<path d="M55.7188 33.5312H14.2812C12.0186 33.5312 9.84867 32.6324 8.24875 31.0325C6.64883 29.4326 5.75 27.2626 5.75 25C5.75 22.7374 6.64883 20.5674 8.24875 18.9675C9.84867 17.3676 12.0186 16.4688 14.2812 16.4688H55.7188C57.9814 16.4688 60.1513 17.3676 61.7513 18.9675C63.3512 20.5674 64.25 22.7374 64.25 25C64.25 27.2626 63.3512 29.4326 61.7513 31.0325C60.1513 32.6324 57.9814 33.5312 55.7188 33.5312ZM14.2812 18.9062C12.6651 18.9062 11.1151 19.5483 9.97232 20.6911C8.82952 21.8339 8.1875 23.3838 8.1875 25C8.1875 26.6162 8.82952 28.1661 9.97232 29.3089C11.1151 30.4517 12.6651 31.0938 14.2812 31.0938H55.7188C57.3349 31.0938 58.8849 30.4517 60.0277 29.3089C61.1705 28.1661 61.8125 26.6162 61.8125 25C61.8125 23.3838 61.1705 21.8339 60.0277 20.6911C58.8849 19.5483 57.3349 18.9062 55.7188 18.9062H14.2812Z" fill="#CF182A"/>
<path d="M48.4062 33.5312C48.083 33.5312 47.773 33.4028 47.5445 33.1743C47.3159 32.9457 47.1875 32.6357 47.1875 32.3125V17.6875C47.1875 17.3643 47.3159 17.0543 47.5445 16.8257C47.773 16.5972 48.083 16.4688 48.4062 16.4688C48.7295 16.4688 49.0395 16.5972 49.268 16.8257C49.4966 17.0543 49.625 17.3643 49.625 17.6875V32.3125C49.625 32.6357 49.4966 32.9457 49.268 33.1743C49.0395 33.4028 48.7295 33.5312 48.4062 33.5312Z" fill="#CF182A"/>
<path d="M35.0001 44.5C31.2062 44.4984 27.4949 43.391 24.3204 41.3134C21.1459 39.2357 18.6458 36.2779 17.1259 32.8017C16.9962 32.5056 16.9894 32.1701 17.107 31.869C17.2246 31.5679 17.457 31.3259 17.7531 31.1961C18.0492 31.0664 18.3847 31.0596 18.6858 31.1772C18.9869 31.2948 19.2289 31.5272 19.3587 31.8233C20.6871 34.8666 22.8744 37.4564 25.6527 39.2751C28.431 41.0938 31.6795 42.0625 35.0001 42.0625C38.3207 42.0625 41.5693 41.0938 44.3475 39.2751C47.1258 37.4564 49.3132 34.8666 50.6415 31.8233C50.7713 31.5272 51.0133 31.2948 51.3144 31.1772C51.6156 31.0596 51.951 31.0664 52.2471 31.1961C52.5432 31.3259 52.7756 31.5679 52.8932 31.869C53.0109 32.1701 53.004 32.5056 52.8743 32.8017C51.3543 36.2778 48.8541 39.2355 45.6796 41.3132C42.5052 43.3908 38.794 44.4982 35.0001 44.5Z" fill="#CF182A"/>
<path d="M51.7591 18.9063C51.5221 18.9065 51.2901 18.8377 51.0916 18.7081C50.8931 18.5785 50.7367 18.3939 50.6415 18.1767C49.3132 15.1334 47.1258 12.5437 44.3475 10.7249C41.5693 8.90621 38.3207 7.93749 35.0001 7.93749C31.6795 7.93749 28.431 8.90621 25.6527 10.7249C22.8744 12.5437 20.6871 15.1334 19.3587 18.1767C19.2289 18.4728 18.9869 18.7052 18.6858 18.8229C18.3847 18.9405 18.0492 18.9337 17.7531 18.8039C17.457 18.6742 17.2246 18.4321 17.107 18.131C16.9894 17.8299 16.9962 17.4944 17.1259 17.1983C18.6445 13.7212 21.1443 10.7624 24.3191 8.68456C27.4939 6.60671 31.2058 5.5 35.0001 5.5C38.7944 5.5 42.5063 6.60671 45.6811 8.68456C48.8559 10.7624 51.3557 13.7212 52.8743 17.1983C52.9386 17.3449 52.9733 17.5028 52.9766 17.6628C52.9798 17.8228 52.9515 17.9819 52.8933 18.131C52.835 18.2801 52.748 18.4163 52.6371 18.5317C52.5263 18.6472 52.3937 18.7397 52.2471 18.8039C52.0934 18.8716 51.9272 18.9065 51.7591 18.9063Z" fill="#CF182A"/>
</svg>
