<svg width="78" height="78" viewBox="0 0 78 78" fill="none" xmlns="http://www.w3.org/2000/svg">
<path d="M39.0429 35.3826C37.6069 35.3826 36.4429 36.5466 36.4429 37.9826C36.4427 39.0208 37.0529 39.9143 37.9326 40.3312V43.4918C37.9326 44.1049 38.4296 44.602 39.0428 44.602C39.656 44.602 40.1529 44.105 40.1529 43.4918V40.3312C41.0328 39.9143 41.643 39.0208 41.643 37.9826C41.643 36.5466 40.4789 35.3826 39.0429 35.3826Z" fill="#CF182A"/>
<path d="M66.7475 16.9329C61.9686 15.0418 58.1755 11.559 56.0669 7.12606C55.4935 5.92057 54.2541 5.14148 52.909 5.14148H25.0907C23.7459 5.14148 22.5064 5.92041 21.933 7.12606C19.8245 11.559 16.0313 15.0418 11.2524 16.9329C9.91197 17.4632 9.0459 18.7411 9.0459 20.1882V26.9541C9.0459 35.8234 11.6322 44.5848 16.5254 52.2916C21.466 60.0737 28.6253 66.5774 37.2286 71.0993L37.3687 71.173C37.8795 71.4415 38.4397 71.5757 39 71.5757C39.56 71.5757 40.1204 71.4415 40.6309 71.1732L40.7715 71.0993C49.3749 66.5773 56.534 60.0737 61.4748 52.2916C66.3678 44.5846 68.9542 35.8232 68.9542 26.9541V20.1882C68.9542 18.7409 68.0878 17.4632 66.7475 16.9329ZM66.7341 26.9542C66.7341 35.4012 64.2673 43.7512 59.6006 51.1018C54.8674 58.5569 47.9991 64.7924 39.7389 69.1342L39.5983 69.208C39.2237 69.4051 38.7764 69.4049 38.4016 69.208L38.2615 69.1344C30.0009 64.7926 23.1327 58.557 18.3993 51.1018C13.7326 43.7513 11.2659 35.4012 11.2659 26.9541V20.1882C11.2659 19.6579 11.5812 19.1903 12.0692 18.9973C17.3722 16.8989 21.5871 13.0216 23.9377 8.07973C24.145 7.64357 24.5976 7.36174 25.0906 7.36174H52.9092C53.4022 7.36174 53.8546 7.64357 54.0621 8.07973C56.4128 13.0216 60.6278 16.8989 65.9308 18.9974C66.4187 19.1905 66.7341 19.658 66.7341 20.1883V26.9542Z" fill="#CF182A"/>
<path d="M72.3134 37.4888C71.7154 37.3535 71.121 37.7287 70.986 38.3268C67.6052 53.2835 57.3086 66.2545 42.736 73.9139L39.3495 75.6939C39.1309 75.8087 38.8698 75.8087 38.6512 75.6939L35.2647 73.9139C20.6693 66.2425 10.3675 53.249 7.00087 38.2654C6.86666 37.6673 6.27252 37.2912 5.67457 37.4257C5.07646 37.5601 4.70048 38.1539 4.83485 38.752C8.34424 54.372 19.059 67.9042 34.2319 75.879L37.6183 77.6589C38.0511 77.8862 38.5257 78 39.0004 78C39.4749 78 39.9498 77.8862 40.3824 77.6588L43.7689 75.8788C58.9178 67.9166 69.6273 54.4078 73.1516 38.8162C73.2866 38.2182 72.9113 37.6239 72.3134 37.4888Z" fill="#CF182A"/>
<path d="M71.7729 12.702C65.8453 12.0766 61.1845 7.91593 60.4385 2.58421C60.2324 1.11089 58.9662 0 57.4934 0H20.5067C19.034 0 17.7679 1.11089 17.5618 2.58421C16.8156 7.91609 12.1548 12.0766 6.22741 12.702C4.72545 12.8604 3.59277 14.1293 3.59277 15.6533V27.5733C3.59277 29.3055 3.6825 31.0566 3.85953 32.7784C3.91833 33.3497 4.40035 33.7751 4.9625 33.7751C5.00043 33.7751 5.03882 33.7731 5.07736 33.7691C5.6872 33.7065 6.13082 33.1613 6.06806 32.5514C5.8988 30.9048 5.81288 29.2299 5.81288 27.5733V15.6533C5.81288 15.2747 6.09731 14.948 6.46034 14.9097C13.4036 14.1773 18.8727 9.23523 19.7606 2.89179C19.8151 2.50255 20.1288 2.22011 20.5067 2.22011H57.4932C57.8712 2.22011 58.1852 2.50255 58.2395 2.89179C59.1271 9.23523 64.5964 14.1771 71.5396 14.9097C71.9026 14.948 72.1871 15.2747 72.1871 15.6533V27.5733C72.1871 29.2124 72.103 30.8699 71.9372 32.5001C71.8752 33.1099 72.3195 33.6547 72.9293 33.7167C73.5388 33.7792 74.0839 33.3345 74.1461 32.7247C74.3194 31.0202 74.4072 29.2872 74.4072 27.5733V15.6533C74.4073 14.1293 73.2748 12.8604 71.7729 12.702Z" fill="#CF182A"/>
<path d="M51.7145 27.7059H49.8893V22.4071C49.8893 16.4263 45.0236 11.5605 39.0425 11.5605C33.0617 11.5605 28.1958 16.4263 28.1958 22.4071V27.7059H26.3707C24.4241 27.7059 22.8403 29.2897 22.8403 31.2364V47.1302C22.8403 49.0769 24.4241 50.6606 26.3707 50.6606H51.7145C53.6611 50.6606 55.2449 49.0769 55.2449 47.1302V31.2364C55.2449 29.2897 53.6611 27.7059 51.7145 27.7059ZM30.4161 22.4073C30.4161 17.6506 34.2859 13.7808 39.0427 13.7808C43.7995 13.7808 47.6693 17.6506 47.6693 22.4073V27.7061H30.4161V22.4073ZM53.0248 47.1302C53.0248 47.8526 52.4369 48.4405 51.7145 48.4405H26.3707C25.6482 48.4405 25.0604 47.8526 25.0604 47.1302V31.2364C25.0604 30.5139 25.6483 29.926 26.3707 29.926H51.7145C52.4369 29.926 53.0248 30.5138 53.0248 31.2364V47.1302Z" fill="#CF182A"/>
</svg>
