<svg width="58" height="78" viewBox="0 0 58 78" fill="none" xmlns="http://www.w3.org/2000/svg">
<path d="M44.6606 36.0468H17.1535V19.7271C17.1535 14.0248 21.7261 9.34116 27.3467 9.28666C30.1059 9.26398 32.7192 10.3193 34.6888 12.2698C36.6586 14.2208 37.7436 16.8175 37.7436 19.5814V25.4127C37.7436 27.3844 39.3477 28.9883 41.3193 28.9883H43.454C45.4256 28.9883 47.0297 27.3843 47.0297 25.4127V19.5814C47.0297 15.9753 46.0405 12.4501 44.1692 9.38683C43.8404 8.84853 43.1375 8.67895 42.5995 9.00777C42.0616 9.33644 41.8918 10.0391 42.2205 10.5773C43.8728 13.2819 44.7462 16.3953 44.7462 19.5813V25.4125C44.7462 26.1251 44.1665 26.7047 43.454 26.7047H41.3193C40.6067 26.7047 40.0271 26.125 40.0271 25.4125V19.5813C40.0271 16.2032 38.7019 13.0304 36.2954 10.6472C33.9192 8.29395 30.7825 7.00271 27.4498 7.00271C27.4084 7.00271 27.3662 7.00286 27.3245 7.00332C20.4573 7.07 14.87 12.7778 14.87 19.7271V36.0468H10.2364C10.2076 36.0468 10.1794 36.0487 10.1508 36.0489V19.5813C10.1508 10.0433 17.9106 2.28349 27.4486 2.28349C31.8839 2.28349 36.1016 3.96064 39.325 7.00591C39.7831 7.43886 40.5057 7.41846 40.9391 6.96009C41.3721 6.50171 41.3515 5.77906 40.8932 5.34596C37.2441 1.89865 32.4694 0 27.4486 0C16.6515 0 7.86731 8.78414 7.86731 19.5813V36.3293C3.42272 37.399 0.109375 41.4057 0.109375 46.1737V58.4057C0.109375 59.0362 0.620421 59.5474 1.25112 59.5474C1.88182 59.5474 2.39287 59.0362 2.39287 58.4057V46.1737C2.39287 41.8488 5.91143 38.3301 10.2364 38.3301H44.6606C48.9856 38.3301 52.5041 41.8488 52.5041 46.1737V67.8729C52.5041 72.1978 48.9856 75.7164 44.6606 75.7164H10.2364C5.91143 75.7164 2.39287 72.1978 2.39287 67.8729V63.2715C2.39287 62.6409 1.88182 62.1297 1.25112 62.1297C0.620421 62.1297 0.109375 62.6409 0.109375 63.2715V67.8729C0.109375 73.4569 4.65231 77.9998 10.2364 77.9998H44.6606C50.2448 77.9998 54.7876 73.4569 54.7876 67.8729V46.1739C54.7878 40.5897 50.2448 36.0468 44.6606 36.0468Z" fill="#CF182A"/>
<path d="M48.7748 50.8631C49.4055 50.8631 49.9165 50.3519 49.9165 49.7214V46.1739C49.9165 43.2758 47.5589 40.9182 44.6608 40.9182H38.8854C38.2547 40.9182 37.7437 41.4294 37.7437 42.06C37.7437 42.6905 38.2547 43.2017 38.8854 43.2017H44.6608C46.2997 43.2017 47.633 44.535 47.633 46.1739V49.7214C47.633 50.3519 48.144 50.8631 48.7748 50.8631Z" fill="#CF182A"/>
<path d="M6.12222 50.8631C6.75292 50.8631 7.26396 50.3519 7.26396 49.7214V46.1739C7.26396 44.535 8.59737 43.2017 10.2362 43.2017H16.0116C16.6423 43.2017 17.1533 42.6905 17.1533 42.06C17.1533 41.4294 16.6423 40.9182 16.0116 40.9182H10.2362C7.3381 40.9182 4.98047 43.2758 4.98047 46.1739V49.7214C4.98047 50.3519 5.49151 50.8631 6.12222 50.8631Z" fill="#CF182A"/>
<path d="M4.98047 67.8728C4.98047 70.7709 7.3381 73.1285 10.2362 73.1285H16.0116C16.6423 73.1285 17.1533 72.6173 17.1533 71.9868C17.1533 71.3562 16.6423 70.845 16.0116 70.845H10.2362C8.59722 70.845 7.26396 69.5118 7.26396 67.8728V64.3253C7.26396 63.6948 6.75292 63.1836 6.12222 63.1836C5.49151 63.1836 4.98047 63.6948 4.98047 64.3253V67.8728Z" fill="#CF182A"/>
<path d="M38.8854 73.1285H44.6608C47.5589 73.1285 49.9165 70.7709 49.9165 67.8728V64.3253C49.9165 63.6948 49.4055 63.1836 48.7748 63.1836C48.144 63.1836 47.633 63.6948 47.633 64.3253V67.8728C47.633 69.5118 46.2996 70.845 44.6608 70.845H38.8854C38.2547 70.845 37.7437 71.3562 37.7437 71.9868C37.7437 72.6173 38.2547 73.1285 38.8854 73.1285Z" fill="#CF182A"/>
<path d="M27.0924 49.3799C28.0218 49.3154 28.9422 49.5096 29.7542 49.9436C30.31 50.2411 31.002 50.031 31.2992 49.4749C31.5965 48.9188 31.3866 48.227 30.8305 47.9297C29.6391 47.2928 28.2925 47.007 26.9324 47.1019C23.3257 47.3551 20.4631 50.2706 20.274 53.8839C20.1498 56.2581 21.2024 58.5366 23.0896 59.9788C23.18 60.0479 23.2229 60.1654 23.199 60.2779L22.1493 65.2033C21.9976 65.9141 22.1728 66.6457 22.6302 67.2106C23.0873 67.7756 23.7664 68.0997 24.4932 68.0997H30.4041C31.1308 68.0997 31.8099 67.7757 32.2671 67.2106C32.7244 66.6457 32.8996 65.9141 32.748 65.2033L31.6985 60.2792C31.6742 60.1647 31.7248 60.0426 31.8311 59.9608C33.6119 58.5883 34.6333 56.5135 34.6333 54.2684C34.6333 53.6776 34.5596 53.0854 34.414 52.5083C34.2598 51.8966 33.6396 51.5261 33.0278 51.6803C32.4164 51.8345 32.0458 52.455 32.2 53.0665C32.2995 53.4613 32.3499 53.8657 32.3499 54.2684C32.3499 55.7997 31.6528 57.2153 30.4376 58.152C29.6286 58.7754 29.2559 59.7728 29.4654 60.7552L30.5149 65.6795C30.5178 65.6926 30.526 65.7323 30.4922 65.7742C30.4581 65.8162 30.4176 65.8162 30.4042 65.8162H24.4933C24.4799 65.8162 24.4394 65.8162 24.4053 65.7742C24.3714 65.7323 24.3798 65.6926 24.3827 65.6793L25.4325 60.7537C25.639 59.7827 25.2639 58.7664 24.4763 58.1645C23.1879 57.1802 22.4695 55.6245 22.5543 54.0034C22.6833 51.5401 24.6343 49.5524 27.0924 49.3799Z" fill="#CF182A"/>
<path d="M53.2345 24.0221C53.5266 24.0221 53.8189 23.9106 54.0419 23.6876L56.4468 21.2828C56.8926 20.8369 56.8926 20.114 56.4468 19.6682C56.0007 19.2222 55.2779 19.2223 54.832 19.6682L52.4272 22.073C51.9813 22.5189 51.9813 23.2419 52.4272 23.6876C52.6501 23.9106 52.9423 24.0221 53.2345 24.0221Z" fill="#CF182A"/>
<path d="M54.0419 31.6926C53.5959 31.2467 52.8731 31.2466 52.4272 31.6926C51.9813 32.1385 51.9813 32.8613 52.4272 33.3072L54.832 35.712C55.055 35.9351 55.3472 36.0465 55.6395 36.0465C55.9316 36.0465 56.2239 35.9351 56.4469 35.712C56.8928 35.2661 56.8928 34.5433 56.4469 34.0975L54.0419 31.6926Z" fill="#CF182A"/>
<path d="M56.7493 26.5483H53.6461C53.0154 26.5483 52.5044 27.0595 52.5044 27.6901C52.5044 28.3206 53.0154 28.8318 53.6461 28.8318H56.7493C57.38 28.8318 57.891 28.3206 57.891 27.6901C57.891 27.0595 57.3798 26.5483 56.7493 26.5483Z" fill="#CF182A"/>
</svg>
