<svg width="60" height="66" viewBox="0 0 60 66" fill="none" xmlns="http://www.w3.org/2000/svg">
<path d="M4.88352 59.29V61.6C4.88352 64.0301 6.85346 66 9.28352 66H20.0998C22.5299 66 24.4998 64.0301 24.4998 61.6V59.4H35.4998V61.6C35.4998 64.0301 37.4698 66 39.8998 66H50.7161C53.1462 66 55.1161 64.0301 55.1161 61.6V59.3076C57.7568 58.8614 59.6923 56.5781 59.6998 53.9V5.5C59.6962 2.46394 57.2359 0.00363673 54.1998 0H5.98682C2.95076 0.00363673 0.490453 2.46394 0.486816 5.5V9.9C0.486816 10.5075 0.979303 11 1.58682 11C2.19433 11 2.68682 10.5075 2.68682 9.9V5.5C2.68682 3.67746 4.16428 2.2 5.98682 2.2H54.1998C56.0224 2.2 57.4998 3.67746 57.4998 5.5V53.9C57.4998 55.7225 56.0224 57.2 54.1998 57.2H5.98682C4.16428 57.2 2.68682 55.7225 2.68682 53.9V15.4C2.68682 14.7925 2.19433 14.3 1.58682 14.3C0.979303 14.3 0.486816 14.7925 0.486816 15.4V53.9C0.489791 56.5116 2.32577 58.7624 4.88352 59.29ZM52.9161 59.4V61.6C52.9161 62.815 51.9311 63.8 50.7161 63.8H39.8998C38.6848 63.8 37.6998 62.815 37.6998 61.6V59.4H52.9161ZM22.2998 59.4V61.6C22.2998 62.815 21.3148 63.8 20.0998 63.8H9.28352C8.06849 63.8 7.08352 62.815 7.08352 61.6V59.4H22.2998Z" fill="#CF182A"/>
<path d="M9.1 37.4C8.49249 37.4 8 37.8924 8 38.5V48.4C8 50.2225 9.47746 51.7 11.3 51.7H48.7C50.5225 51.7 52 50.2225 52 48.4V47.3C53.8225 47.3 55.3 45.8225 55.3 44V37.4C55.3 35.5774 53.8225 34.1 52 34.1V25.3C53.8225 25.3 55.3 23.8225 55.3 22V15.4C55.3 13.5774 53.8225 12.1 52 12.1V11C52 9.17741 50.5225 7.69995 48.7 7.69995H11.3C9.47746 7.69995 8 9.17741 8 11V33C8 33.6075 8.49249 34.1 9.1 34.1C9.70751 34.1 10.2 33.6075 10.2 33V11C10.2 10.3924 10.6925 9.89995 11.3 9.89995H48.7C49.3075 9.89995 49.8 10.3924 49.8 11V12.1C47.9775 12.1 46.5 13.5774 46.5 15.4V22C46.5 23.8225 47.9775 25.3 49.8 25.3V34.1C47.9775 34.1 46.5 35.5774 46.5 37.4V44C46.5 45.8225 47.9775 47.3 49.8 47.3V48.4C49.8 49.0075 49.3075 49.5 48.7 49.5H11.3C10.6925 49.5 10.2 49.0075 10.2 48.4V38.5C10.2 37.8924 9.70751 37.4 9.1 37.4ZM48.7 22V15.4C48.7 14.7924 49.1925 14.3 49.8 14.3H52C52.6075 14.3 53.1 14.7924 53.1 15.4V22C53.1 22.6075 52.6075 23.1 52 23.1H49.8C49.1925 23.1 48.7 22.6075 48.7 22ZM48.7 44V37.4C48.7 36.7924 49.1925 36.3 49.8 36.3H52C52.6075 36.3 53.1 36.7924 53.1 37.4V44C53.1 44.6075 52.6075 45.1 52 45.1H49.8C49.1925 45.1 48.7 44.6075 48.7 44Z" fill="#CF182A"/>
<path d="M17.8052 34.7512C20.215 40.5693 26.3992 43.8749 32.5756 42.6464C38.752 41.4178 43.2005 35.9974 43.2005 29.7C43.2005 23.4025 38.752 17.9821 32.5756 16.7536C26.3992 15.5251 20.215 18.8307 17.8052 24.6488C16.4549 27.8809 16.4549 31.5191 17.8052 34.7512ZM24.7946 20.0112L25.195 20.977C25.3398 21.3483 25.6742 21.6124 26.069 21.667C26.4639 21.7217 26.8574 21.5585 27.0976 21.2404C27.3379 20.9224 27.3873 20.4992 27.2267 20.1344L26.8274 19.1686C28.8956 18.5394 31.1041 18.5394 33.1722 19.1686L32.7729 20.1344C32.6124 20.4992 32.6618 20.9224 32.902 21.2404C33.1423 21.5585 33.5358 21.7217 33.9306 21.667C34.3255 21.6124 34.6598 21.3483 34.8046 20.977L35.205 20.0101C37.112 21.028 38.6733 22.5898 39.6908 24.497L38.725 24.8974C38.3536 25.0421 38.0896 25.3765 38.035 25.7714C37.9803 26.1662 38.1435 26.5597 38.4616 26.8C38.7796 27.0402 39.2028 27.0896 39.5676 26.9291L40.5334 26.5298C41.1626 28.5979 41.1626 30.8064 40.5334 32.8746L39.5676 32.4753C39.2028 32.3147 38.7796 32.3641 38.4616 32.6043C38.1435 32.8446 37.9803 33.2381 38.035 33.633C38.0896 34.0278 38.3536 34.3622 38.725 34.507L39.6919 34.9074C38.674 36.8143 37.1122 38.3757 35.205 39.3932L34.8046 38.4274C34.6598 38.056 34.3255 37.792 33.9306 37.7373C33.5358 37.6826 33.1423 37.8458 32.902 38.1639C32.6618 38.482 32.6124 38.9051 32.7729 39.27L33.1722 40.2358C31.1041 40.8649 28.8956 40.8649 26.8274 40.2358L27.2267 39.27C27.3873 38.9051 27.3379 38.482 27.0976 38.1639C26.8574 37.8458 26.4639 37.6826 26.069 37.7373C25.6742 37.792 25.3398 38.056 25.195 38.4274L24.7946 39.3943C22.8877 38.3763 21.3263 36.8146 20.3088 34.9074L21.2746 34.507C21.646 34.3622 21.91 34.0278 21.9647 33.633C22.0194 33.2381 21.8562 32.8446 21.5381 32.6043C21.22 32.3641 20.7969 32.3147 20.432 32.4753L19.4662 32.8746C18.8371 30.8064 18.8371 28.5979 19.4662 26.5298L20.432 26.9291C20.7969 27.0896 21.22 27.0402 21.5381 26.8C21.8562 26.5597 22.0194 26.1662 21.9647 25.7714C21.91 25.3765 21.646 25.0421 21.2746 24.8974L20.3077 24.497C21.3253 22.5892 22.8871 21.027 24.7946 20.009V20.0112Z" fill="#CF182A"/>
<path d="M30.0086 36.3C32.9152 36.2955 35.4767 34.39 36.3167 31.6074C37.1567 28.8248 36.0775 25.8203 33.6589 24.2082C31.2403 22.5961 28.0518 22.756 25.8067 24.602C23.5615 26.448 22.7883 29.5454 23.9025 32.23C24.9287 34.6956 27.3379 36.3015 30.0086 36.3ZM28.3157 25.63C30.561 24.7037 33.1321 25.772 34.06 28.0166C34.9878 30.2612 33.9214 32.8331 31.6775 33.7626C29.4335 34.692 26.8608 33.6274 25.9298 31.3841C25.4788 30.3051 25.4771 29.0907 25.925 28.0104C26.3729 26.9301 27.2335 26.0733 28.3157 25.63Z" fill="#CF182A"/>
<path d="M18.9999 12.1H13.4999C12.8924 12.1 12.3999 12.5925 12.3999 13.2V18.7C12.3999 19.3075 12.8924 19.8 13.4999 19.8C14.1074 19.8 14.5999 19.3075 14.5999 18.7V14.3H18.9999C19.6074 14.3 20.0999 13.8075 20.0999 13.2C20.0999 12.5925 19.6074 12.1 18.9999 12.1Z" fill="#CF182A"/>
</svg>
