<svg width="70" height="70" viewBox="0 0 70 70" fill="none" xmlns="http://www.w3.org/2000/svg">
<path fill-rule="evenodd" clip-rule="evenodd" d="M30.36 69.3578C28.9784 69.3578 27.7841 68.3267 27.5807 66.9592L26.5113 59.7453C26.4872 59.5801 26.3784 59.4412 26.2274 59.3868C25.4198 59.0847 24.6202 58.7383 23.8469 58.3557C23.6978 58.2832 23.5206 58.2993 23.3837 58.398L17.4868 62.6514C16.3631 63.463 14.8365 63.3402 13.8557 62.3594L7.51783 56.0215C6.54107 55.0447 6.42426 53.4719 7.24796 52.3602L11.729 46.3224C11.8277 46.1894 11.8458 46.0102 11.7773 45.8551C11.4571 45.1462 11.1671 44.4152 10.9133 43.6821C10.8569 43.519 10.718 43.3981 10.5508 43.3719L3.15966 42.1757C1.79018 41.9541 0.799316 40.788 0.799316 39.4025V30.4384C0.799316 29.0548 1.82844 27.8626 3.19792 27.6592L10.7361 26.5414C10.9013 26.5173 11.0402 26.4004 11.1026 26.2393C11.3604 25.5405 11.6545 24.8457 11.9727 24.173C12.0472 24.0179 12.0311 23.8387 11.9324 23.7018L7.50575 17.5693C6.69413 16.4455 6.81698 14.919 7.79777 13.9382L14.1356 7.60029C15.1124 6.62352 16.6853 6.50672 17.797 7.33042L23.8529 11.8235C23.9879 11.9242 24.1691 11.9403 24.3282 11.8658C25.0291 11.5375 25.7541 11.2355 26.4872 10.9696C26.6483 10.9112 26.7631 10.7743 26.7913 10.6091L27.9835 3.23809C28.205 1.86861 29.3711 0.875732 30.7567 0.875732H39.7188C41.1003 0.875732 42.2946 1.90486 42.498 3.27434L43.5734 10.5225C43.5976 10.6897 43.7104 10.8307 43.8675 10.885C44.6791 11.169 45.4847 11.5013 46.2621 11.8658C46.4091 11.9343 46.5843 11.9162 46.7233 11.8175L52.5919 7.58015C53.7157 6.76853 55.2422 6.89138 56.223 7.87217L62.5609 14.21C63.5377 15.1868 63.6545 16.7597 62.8308 17.8714L58.5995 23.5769C58.4988 23.7138 58.4806 23.8971 58.5572 24.0582C58.9559 24.89 59.3144 25.752 59.6226 26.626C59.681 26.7891 59.8199 26.91 59.9851 26.9341L66.9211 28.0559C68.2906 28.2774 69.2834 29.4435 69.2834 30.8291V39.7932C69.2834 41.1747 68.2523 42.369 66.8848 42.5724L59.9609 43.5995C59.7917 43.6237 59.6507 43.7425 59.5944 43.9097C59.2741 44.8099 58.8975 45.7001 58.4786 46.56C58.4021 46.7171 58.4162 46.9004 58.5149 47.0373L62.577 52.6683C63.3886 53.7921 63.2658 55.3186 62.285 56.2994L55.9471 62.6373C54.9703 63.6141 53.3975 63.7309 52.2858 62.9072L46.6004 58.69C46.4655 58.5913 46.2842 58.5732 46.1251 58.6457C45.2873 59.0324 44.4173 59.3808 43.5392 59.6748C43.3741 59.7312 43.2552 59.8681 43.227 60.0333L42.1013 66.9975C41.8797 68.367 40.7136 69.3598 39.328 69.3598L30.36 69.3578ZM24.8881 56.2471C25.591 56.5935 26.318 56.9097 27.0511 57.1836C28.0016 57.54 28.6864 58.3879 28.8354 59.4009L29.9048 66.6169C29.9391 66.8404 30.1324 67.0096 30.358 67.0096H39.322C39.5496 67.0096 39.7389 66.8485 39.7752 66.6229L40.9009 59.6587C41.0681 58.6296 41.7891 57.7817 42.784 57.4474C43.5815 57.1795 44.373 56.8633 45.1342 56.5129C46.0748 56.0779 47.1703 56.1907 47.9961 56.8029L53.6794 61.0181C53.8607 61.153 54.1184 61.1329 54.2775 60.9738L60.6154 54.6359C60.7745 54.4768 60.7967 54.2271 60.6638 54.0438L56.5996 48.4108C55.9914 47.569 55.9008 46.4613 56.3579 45.5248C56.7386 44.7434 57.081 43.9358 57.371 43.1182C57.7214 42.1313 58.5813 41.4245 59.6085 41.2734L66.5324 40.2463C66.7559 40.2121 66.9251 40.0187 66.9251 39.7932V30.8291C66.9251 30.6015 66.762 30.4122 66.5384 30.376L59.6024 29.2542C58.5854 29.0891 57.7415 28.3801 57.3992 27.4054C57.1212 26.6139 56.795 25.8305 56.4325 25.0753C55.9773 24.1267 56.08 23.015 56.7043 22.1752L60.9356 16.4697C61.0706 16.2884 61.0504 16.0307 60.8913 15.8715L54.5535 9.53367C54.3944 9.37256 54.1446 9.35242 53.9614 9.48534L48.0907 13.7207C47.261 14.3188 46.1755 14.4215 45.2551 13.9905C44.5482 13.6582 43.8171 13.3581 43.08 13.1004C42.0992 12.754 41.3923 11.898 41.2393 10.8649L40.1659 3.61872C40.1316 3.39517 39.9383 3.226 39.7127 3.226H30.7487C30.5211 3.226 30.3318 3.38712 30.2955 3.61268L29.1033 10.9837C28.9421 11.9887 28.2413 12.8305 27.2806 13.1789C26.616 13.4186 25.9575 13.6925 25.3191 13.9925C24.3786 14.4356 23.2769 14.3248 22.4452 13.7086L16.3872 9.21547C16.206 9.08053 15.9482 9.10067 15.7891 9.25978L9.45524 15.5997C9.29614 15.7588 9.27399 16.0085 9.40691 16.1918L13.8336 22.3262C14.4317 23.156 14.5324 24.2516 14.0913 25.18C13.8013 25.7902 13.5355 26.4226 13.2999 27.059C12.9414 28.0257 12.0895 28.7205 11.0745 28.8695L3.53626 29.9873C3.31272 30.0215 3.14355 30.2148 3.14355 30.4404V39.4025C3.14355 39.63 3.30466 39.8193 3.53022 39.8556L10.9214 41.0519C11.9445 41.217 12.7883 41.9299 13.1307 42.9128C13.3603 43.5794 13.6241 44.242 13.9161 44.8864C14.337 45.8169 14.2222 46.9044 13.614 47.722L9.13503 53.7598C9.00009 53.9411 9.02023 54.1989 9.17933 54.358L15.5152 60.6959C15.6743 60.857 15.924 60.8771 16.1073 60.7442L22.0041 56.4908C22.8822 55.8624 23.9858 55.8 24.8881 56.2471Z" fill="#CF182A"/>
<path fill-rule="evenodd" clip-rule="evenodd" d="M35.0363 54.6863C24.2456 54.6863 15.4648 45.9075 15.4648 35.1148C15.4648 24.3221 24.2436 15.5433 35.0363 15.5433C45.8291 15.5433 54.6078 24.3221 54.6078 35.1148C54.6078 45.9075 45.827 54.6863 35.0363 54.6863ZM35.0363 17.8956C25.5406 17.8956 17.8171 25.6191 17.8171 35.1148C17.8171 44.6106 25.5406 52.334 35.0363 52.334C44.5321 52.334 52.2555 44.6106 52.2555 35.1148C52.2555 25.6191 44.5301 17.8956 35.0363 17.8956Z" fill="#CF182A"/>
<path fill-rule="evenodd" clip-rule="evenodd" d="M39.1083 54.2331C38.4599 54.2331 37.9322 53.7074 37.9322 53.0569V42.4374C37.9322 41.9923 38.1819 41.5875 38.5767 41.3881C43.3034 38.9956 44.2681 32.847 40.8766 29.1071V33.7432C40.8766 34.2044 40.6087 34.6213 40.1898 34.8126L35.5255 36.9454C35.2154 37.0884 34.8589 37.0884 34.5468 36.9454L29.8825 34.8126C29.4636 34.6213 29.1957 34.2024 29.1957 33.7432V29.1091C25.8022 32.847 26.7689 38.9996 31.4956 41.3902C31.8904 41.5916 32.1401 41.9964 32.1401 42.4394V53.0589C32.1401 53.7074 31.6145 54.2351 30.964 54.2351C30.3135 54.2351 29.7878 53.7094 29.7878 53.0589V43.1342C23.2123 39.205 23.1418 29.6308 29.7637 25.6311C30.5471 25.1578 31.548 25.7217 31.548 26.636V32.988L35.0362 34.583L38.5243 32.988V26.636C38.5243 25.7217 39.5252 25.1578 40.3087 25.6311C46.9365 29.6368 46.852 39.2091 40.2845 43.1342V53.0589C40.2845 53.7074 39.7568 54.2331 39.1083 54.2331Z" fill="#CF182A"/>
</svg>
