<svg width="78" height="78" viewBox="0 0 78 78" fill="none" xmlns="http://www.w3.org/2000/svg">
<path d="M63.6756 45.7882C63.3961 45.7882 63.128 45.6772 62.9303 45.4795C62.7326 45.2818 62.6216 45.0137 62.6216 44.7342V41.6036C62.6216 41.3241 62.7326 41.056 62.9303 40.8583C63.128 40.6606 63.3961 40.5496 63.6756 40.5496C63.9552 40.5496 64.2233 40.6606 64.421 40.8583C64.6186 41.056 64.7297 41.3241 64.7297 41.6036V44.7342C64.7297 45.0137 64.6186 45.2818 64.421 45.4795C64.2233 45.6772 63.9552 45.7882 63.6756 45.7882Z" fill="#CF182A"/>
<path d="M30.0194 75.8919C29.7398 75.8919 29.4717 75.7808 29.2741 75.5831C29.0764 75.3855 28.9653 75.1174 28.9653 74.8378V3.16212C28.9646 3.01437 28.9949 2.86811 29.0544 2.73283C29.1138 2.59756 29.201 2.47629 29.3104 2.3769C29.4197 2.27751 29.5487 2.20221 29.689 2.1559C29.8293 2.10959 29.9778 2.09329 30.1248 2.10807L63.7808 5.51266C64.0417 5.53888 64.2834 5.66141 64.4588 5.85631C64.6342 6.05121 64.7307 6.3045 64.7294 6.56672V23.7794C64.7294 24.059 64.6184 24.3271 64.4207 24.5248C64.223 24.7224 63.9549 24.8335 63.6753 24.8335C63.3958 24.8335 63.1277 24.7224 62.93 24.5248C62.7323 24.3271 62.6213 24.059 62.6213 23.7794V7.51958L31.0735 4.32791V73.6309L62.6213 69.3567V52.1124C62.6213 51.8328 62.7323 51.5647 62.93 51.3671C63.1277 51.1694 63.3958 51.0583 63.6753 51.0583C63.9549 51.0583 64.223 51.1694 64.4207 51.3671C64.6184 51.5647 64.7294 51.8328 64.7294 52.1124V70.2737C64.7294 70.5287 64.6371 70.775 64.4694 70.967C64.3018 71.1591 64.0702 71.2839 63.8176 71.3183L30.1617 75.8824C30.1145 75.8887 30.067 75.8918 30.0194 75.8919Z" fill="#CF182A"/>
<path d="M63.6756 35.2792C63.3961 35.2792 63.128 35.1681 62.9303 34.9704C62.7326 34.7728 62.6216 34.5047 62.6216 34.2251V31.1578C62.6216 30.8783 62.7326 30.6102 62.9303 30.4125C63.128 30.2148 63.3961 30.1038 63.6756 30.1038C63.9552 30.1038 64.2233 30.2148 64.421 30.4125C64.6186 30.6102 64.7297 30.8783 64.7297 31.1578V34.2251C64.7297 34.5047 64.6186 34.7728 64.421 34.9704C64.2233 35.1681 63.9552 35.2792 63.6756 35.2792Z" fill="#CF182A"/>
<path d="M14.3973 71.9983C14.1178 71.9983 13.8497 71.8873 13.652 71.6896C13.4543 71.4919 13.3433 71.2238 13.3433 70.9443V6.53526C13.3433 6.2557 13.4543 5.9876 13.652 5.78993C13.8497 5.59225 14.1178 5.4812 14.3973 5.4812H30.0184C30.298 5.4812 30.5661 5.59225 30.7637 5.78993C30.9614 5.9876 31.0725 6.2557 31.0725 6.53526C31.0725 6.81481 30.9614 7.08291 30.7637 7.28058C30.5661 7.47826 30.298 7.58931 30.0184 7.58931H15.4514V70.9443C15.4514 71.2238 15.3403 71.4919 15.1426 71.6896C14.945 71.8873 14.6769 71.9983 14.3973 71.9983Z" fill="#CF182A"/>
<path d="M20.3504 71.9981C20.0709 71.9981 19.8028 71.887 19.6051 71.6894C19.4074 71.4917 19.2964 71.2236 19.2964 70.944V12.6917C19.2964 12.4122 19.4074 12.1441 19.6051 11.9464C19.8028 11.7487 20.0709 11.6377 20.3504 11.6377H30.0108C30.2904 11.6377 30.5585 11.7487 30.7562 11.9464C30.9539 12.1441 31.0649 12.4122 31.0649 12.6917C31.0649 12.9713 30.9539 13.2394 30.7562 13.4371C30.5585 13.6348 30.2904 13.7458 30.0108 13.7458H21.4045V70.944C21.4045 71.2236 21.2934 71.4917 21.0958 71.6894C20.8981 71.887 20.63 71.9981 20.3504 71.9981Z" fill="#CF182A"/>
<path d="M30.0109 71.9982H3.21372C2.93417 71.9982 2.66607 71.8872 2.46839 71.6895C2.27072 71.4918 2.15967 71.2237 2.15967 70.9442C2.15967 70.6646 2.27072 70.3965 2.46839 70.1989C2.66607 70.0012 2.93417 69.8901 3.21372 69.8901H30.0109C30.2905 69.8901 30.5586 70.0012 30.7563 70.1989C30.9539 70.3965 31.065 70.6646 31.065 70.9442C31.065 71.2237 30.9539 71.4918 30.7563 71.6895C30.5586 71.8872 30.2905 71.9982 30.0109 71.9982Z" fill="#CF182A"/>
<path d="M74.7862 71.9982H58.6507C58.3712 71.9982 58.1031 71.8872 57.9054 71.6895C57.7077 71.4918 57.5967 71.2237 57.5967 70.9442C57.5967 70.6646 57.7077 70.3965 57.9054 70.1989C58.1031 70.0012 58.3712 69.8901 58.6507 69.8901H74.7862C75.0657 69.8901 75.3338 70.0012 75.5315 70.1989C75.7292 70.3965 75.8402 70.6646 75.8402 70.9442C75.8402 71.2237 75.7292 71.4918 75.5315 71.6895C75.3338 71.8872 75.0657 71.9982 74.7862 71.9982Z" fill="#CF182A"/>
<path d="M37.3347 42.8094C36.5813 42.8094 35.8448 42.586 35.2184 42.1674C34.5919 41.7488 34.1037 41.1539 33.8154 40.4578C33.527 39.7617 33.4516 38.9958 33.5986 38.2569C33.7456 37.5179 34.1084 36.8392 34.6411 36.3064C35.1739 35.7737 35.8526 35.4109 36.5916 35.2639C37.3305 35.1169 38.0964 35.1923 38.7925 35.4806C39.4886 35.769 40.0835 36.2572 40.5021 36.8837C40.9207 37.5101 41.1441 38.2466 41.1441 39C41.143 40.01 40.7413 40.9783 40.0271 41.6924C39.313 42.4066 38.3447 42.8083 37.3347 42.8094ZM37.3347 37.2988C36.9983 37.2988 36.6693 37.3986 36.3896 37.5855C36.1098 37.7724 35.8918 38.0381 35.763 38.349C35.6342 38.6599 35.6005 39.0019 35.6662 39.3319C35.7318 39.6619 35.8939 39.9651 36.1318 40.203C36.3697 40.4409 36.6728 40.6029 37.0028 40.6686C37.3329 40.7342 37.6749 40.7005 37.9858 40.5718C38.2966 40.443 38.5623 40.225 38.7493 39.9452C38.9362 39.6654 39.036 39.3365 39.036 39C39.0354 38.549 38.856 38.1166 38.5371 37.7977C38.2182 37.4788 37.7858 37.2993 37.3347 37.2988Z" fill="#CF182A"/>
</svg>
