<svg width="78" height="78" viewBox="0 0 78 78" fill="none" xmlns="http://www.w3.org/2000/svg">
<g clip-path="url(#clip0_25_5538)">
<path d="M77.9255 76.4518L66.4997 46.3533C66.4048 46.1033 66.2252 45.8946 65.9924 45.7635L53.8223 38.9071L57.3754 33.2734C59.556 29.8131 60.7088 25.8142 60.7088 21.7092C60.7088 9.7388 50.9703 0.000244141 38.9999 0.000244141C27.0295 0.000244141 17.2909 9.7388 17.2909 21.7092C17.2909 25.8153 18.4442 29.8143 20.626 33.2737C20.6844 33.3665 24.1782 38.9074 24.1782 38.9074L12.0077 45.7635C11.7747 45.8946 11.5951 46.1033 11.5002 46.3533L0.0744519 76.4518C-0.0963251 76.9015 0.0330145 77.4101 0.397572 77.7237C0.762587 78.0376 1.28436 78.0892 1.70346 77.8529L20.0712 67.5048L38.4389 77.8529C38.7871 78.049 39.2126 78.049 39.5607 77.8529L57.9284 67.5048L76.2962 77.8529C76.4713 77.9516 76.6647 78.0001 76.8569 78.0001C77.1244 78.0001 77.3898 77.9064 77.6022 77.7239C77.9671 77.4101 78.0962 76.9015 77.9255 76.4518ZM40.1426 59.2178C40.8574 58.9655 41.4771 58.4796 41.8978 57.8137C41.9558 57.7223 51.6826 42.2999 51.6826 42.2999L56.6367 65.6097L40.1426 74.902V59.2178ZM22.559 32.0545C20.6076 28.9604 19.5762 25.3831 19.5762 21.709C19.5762 10.9987 28.2897 2.28524 39 2.28524C49.7104 2.28524 58.4238 10.9987 58.4238 21.709C58.4238 25.3823 57.3928 28.96 55.4426 32.0545C55.2901 32.2963 40.2352 56.1703 39.9726 56.5827C39.9702 56.5862 39.968 56.5899 39.9657 56.5934C39.7538 56.9286 39.3929 57.1289 39 57.1289C38.6068 57.1289 38.2443 56.9276 38.032 56.594C37.8794 56.3519 22.7945 32.4307 22.5642 32.0629C22.5625 32.0602 22.5606 32.0574 22.559 32.0545ZM13.4897 47.5512L24.1409 41.5508L22.2854 50.2807C22.1542 50.898 22.5482 51.5047 23.1653 51.636C23.2454 51.6531 23.3254 51.6613 23.404 51.6613C23.9319 51.6613 24.4063 51.2931 24.5204 50.7561L26.3176 42.3007L36.1012 57.8167C36.5234 58.4808 37.1436 58.9657 37.8572 59.2177V74.9023L21.3634 65.6098L23.5704 55.2263C23.7015 54.609 23.3076 54.0023 22.6904 53.871C22.0725 53.7391 21.4664 54.134 21.3352 54.751L19.0609 65.451L3.33049 74.3134L13.4897 47.5512ZM58.939 65.4511L53.8595 41.5507L64.5103 47.5512L74.6696 74.3134L58.939 65.4511Z" fill="#CF182A"/>
<path d="M51.5684 21.709C51.5684 14.7789 45.9301 9.14062 39 9.14062C32.0699 9.14062 26.4316 14.7789 26.4316 21.709C26.4316 28.6391 32.0699 34.2773 39 34.2773C45.9301 34.2773 51.5684 28.6391 51.5684 21.709ZM28.7168 21.709C28.7168 16.0387 33.3298 11.4258 39 11.4258C44.6702 11.4258 49.2832 16.0387 49.2832 21.709C49.2832 27.3792 44.6702 31.9922 39 31.9922C33.3298 31.9922 28.7168 27.3792 28.7168 21.709Z" fill="#CF182A"/>
<path d="M46.998 21.709C46.998 17.2989 43.41 13.7109 39 13.7109C34.59 13.7109 31.002 17.2989 31.002 21.709C31.002 26.119 34.59 29.707 39 29.707C43.41 29.707 46.998 26.119 46.998 21.709ZM33.2871 21.709C33.2871 18.5588 35.8498 15.9961 39 15.9961C42.1502 15.9961 44.7129 18.5588 44.7129 21.709C44.7129 24.8591 42.1502 27.4219 39 27.4219C35.8498 27.4219 33.2871 24.8591 33.2871 21.709Z" fill="#CF182A"/>
</g>
<defs>
<clipPath id="clip0_25_5538">
<rect width="78" height="78" fill="white"/>
</clipPath>
</defs>
</svg>
