<svg width="78" height="78" viewBox="0 0 78 78" fill="none" xmlns="http://www.w3.org/2000/svg">
<path d="M30.2789 75.8919C29.8997 75.8929 29.522 75.8444 29.1553 75.7475C27.1199 75.2036 25.8688 73.3053 24.6587 71.4691C24.0042 70.2728 23.1113 69.2235 22.0352 68.386C20.7518 67.8575 19.3731 67.5998 17.9855 67.6292C15.811 67.4964 13.5659 67.3541 12.1049 65.8963C10.644 64.4386 10.5049 62.1892 10.371 60.0158C10.399 58.6295 10.141 57.2524 9.61316 55.9703C8.77589 54.8933 7.72609 53.9999 6.52899 53.3457C4.69283 52.1357 2.79448 50.8845 2.25164 48.8491C1.72461 46.897 2.7207 44.908 3.67883 42.9833C4.41562 41.767 4.89058 40.4103 5.07334 39C4.88983 37.5912 4.41491 36.2361 3.67883 35.021C2.7207 33.0973 1.72988 31.1073 2.25164 29.1552C2.79448 27.1198 4.69388 25.8686 6.52899 24.6586C7.72601 24.0047 8.7758 23.1117 9.61316 22.035C10.1412 20.7515 10.3988 19.3729 10.37 17.9854C10.5049 15.813 10.643 13.5668 12.1039 12.1048C13.5648 10.6428 15.811 10.5047 17.9845 10.3709C19.3707 10.3988 20.7478 10.1409 22.0299 9.61301C23.1074 8.77758 24.0021 7.73006 24.6587 6.53518C25.8688 4.69901 27.1199 2.80066 29.1553 2.25677C31.1011 1.73923 33.0964 2.72582 35.0222 3.68396C36.2374 4.41821 37.5921 4.89134 39.0002 5.0732C40.4087 4.88972 41.7634 4.41479 42.9782 3.67869C44.9039 2.72055 46.8993 1.73396 48.8451 2.2515C50.8804 2.79539 52.1316 4.69374 53.3416 6.52991C53.9977 7.7267 54.8924 8.77607 55.9705 9.61301C57.2538 10.1415 58.6325 10.3992 60.0201 10.3698C62.1925 10.5037 64.4398 10.6428 65.9007 12.1037C67.3616 13.5647 67.4955 15.8109 67.6294 17.9843C67.6014 19.3705 67.8594 20.7477 68.3872 22.0298C69.2245 23.1068 70.2743 24.0002 71.4714 24.6544C73.3075 25.8644 75.2059 27.1156 75.7487 29.151C76.2705 31.1031 75.2797 33.0921 74.3215 35.0168C73.5847 36.2331 73.1098 37.5897 72.927 39C73.1105 40.4088 73.5855 41.764 74.3215 42.9791C75.2797 44.9038 76.2705 46.8928 75.7487 48.8449C75.2059 50.8803 73.3065 52.1314 71.4714 53.3415C70.2739 53.9969 69.224 54.8917 68.3872 55.9703C67.8592 57.2538 67.6015 58.6324 67.6304 60.02C67.4955 62.1924 67.3574 64.4386 65.8965 65.9006C64.4356 67.3625 62.1894 67.4953 60.0159 67.6292C58.6283 67.6006 57.2497 67.8586 55.9662 68.3871C54.8897 69.2245 53.9965 70.2738 53.3416 71.4702C52.1316 73.3063 50.8804 75.2047 48.8451 75.7486C46.8993 76.2672 44.9039 75.2795 42.9782 74.3214C41.7634 73.5853 40.4087 73.1104 39.0002 72.9269C37.5917 73.1104 36.2369 73.5853 35.0222 74.3214C33.578 75.1921 31.9574 75.7287 30.2789 75.8919ZM30.2789 4.21626C30.0823 4.21455 29.8864 4.23865 29.6961 4.28793C28.4312 4.62523 27.4088 6.18523 26.4137 7.68936C25.6007 9.17294 24.4636 10.4541 23.0871 11.4376C21.5277 12.1525 19.8272 12.507 18.112 12.4748C16.2484 12.5897 14.4892 12.6982 13.5912 13.5952C12.6931 14.4922 12.5856 16.2525 12.4707 18.1161C12.5033 19.8312 12.1492 21.5317 11.4346 23.0912C10.4532 24.4665 9.17509 25.6034 7.69478 26.4178C6.18748 27.4118 4.63064 28.4384 4.29229 29.6991C3.97607 30.8807 4.75186 32.4396 5.57086 34.0808C6.47156 35.5782 7.02215 37.2599 7.18145 39C7.02054 40.7406 6.46814 42.4223 5.56559 43.9193C4.74343 45.5657 3.97291 47.1163 4.28702 48.301C4.62537 49.5659 6.18432 50.5883 7.68951 51.5823C9.1729 52.396 10.454 53.5334 11.4377 54.9099C12.1527 56.4694 12.5072 58.1698 12.4749 59.8851C12.5898 61.7486 12.6984 63.5078 13.5954 64.4059C14.4924 65.304 16.2526 65.4115 18.1162 65.5264C19.8314 65.4932 21.532 65.8474 23.0913 66.5625C24.4676 67.5462 25.6046 68.8273 26.4179 70.3107C27.4119 71.817 28.4386 73.3748 29.6992 73.7121C30.8808 74.0284 32.4398 73.2547 34.082 72.4346C35.5785 71.532 37.2599 70.9796 39.0002 70.8188C40.7405 70.9796 42.4218 71.532 43.9184 72.4346C45.5648 73.2547 47.1217 74.0284 48.3012 73.7121C49.566 73.3748 50.5885 71.8148 51.5835 70.3107C52.3965 68.8271 53.5336 67.546 54.9101 66.5625C56.4695 65.8476 58.17 65.4931 59.8852 65.5253C61.7488 65.4104 63.508 65.3018 64.4061 64.4049C65.3041 63.5079 65.4116 61.7476 65.5265 59.884C65.4939 58.1689 65.848 56.4684 66.5626 54.9089C67.5464 53.5326 68.8275 52.3956 70.3109 51.5823C71.8182 50.5883 73.375 49.5617 73.7133 48.301C74.0296 47.1194 73.2538 45.5605 72.4348 43.9193C71.5322 42.4223 70.9798 40.7406 70.8189 39C70.9798 37.2594 71.5322 35.5778 72.4348 34.0808C73.2538 32.4343 74.0275 30.8807 73.7133 29.6991C73.375 28.4342 71.8161 27.4118 70.3109 26.4178C68.8275 25.6041 67.5464 24.4667 66.5626 23.0901C65.8477 21.5307 65.4932 19.8302 65.5255 18.115C65.4106 16.2514 65.302 14.4922 64.405 13.5942C63.508 12.6961 61.7477 12.5886 59.8842 12.4737C58.169 12.5068 56.4684 12.1527 54.909 11.4376C53.5334 10.4553 52.3964 9.17609 51.5824 7.69464C50.5885 6.18839 49.5618 4.6305 48.3012 4.2932C47.1206 3.97699 45.5659 4.75066 43.9184 5.57072C42.4214 6.4715 40.7401 7.0221 39.0002 7.18131C37.2599 7.02049 35.5785 6.46808 34.082 5.56545C32.9219 4.85864 31.6282 4.3993 30.2821 4.21626H30.2789Z" fill="#CF182A"/>
<path d="M47.4027 53.7895C46.3882 53.7902 45.3897 53.5371 44.4981 53.0532C43.6064 52.5694 42.85 51.8702 42.2976 51.0193C41.7452 50.1684 41.4144 49.1929 41.3354 48.1815C41.2563 47.1701 41.4315 46.155 41.845 45.2286C42.2585 44.3023 42.8972 43.4941 43.7028 42.8776C44.5085 42.2611 45.4556 41.8559 46.4578 41.699C47.4601 41.542 48.4857 41.6383 49.4412 41.9789C50.3968 42.3196 51.2519 42.8939 51.9288 43.6495C52.7137 44.5236 53.2284 45.6063 53.4109 46.7668C53.5933 47.9273 53.4355 49.1158 52.9567 50.1885C52.4779 51.2612 51.6985 52.1722 50.7128 52.8113C49.7272 53.4503 48.5774 53.7901 47.4027 53.7895ZM47.4027 43.737C46.493 43.7379 45.6111 44.0509 44.9045 44.6239C44.1979 45.1968 43.7093 45.995 43.5204 46.8848C43.3315 47.7747 43.4537 48.7025 43.8667 49.5131C44.2797 50.3237 44.9583 50.968 45.7892 51.3384C46.6202 51.7087 47.553 51.7827 48.4319 51.5479C49.3108 51.3131 50.0825 50.7837 50.618 50.0483C51.1535 49.3129 51.4204 48.416 51.3741 47.5075C51.3278 46.5989 50.9711 45.7338 50.3635 45.0567C49.9907 44.6396 49.5337 44.3063 49.0226 44.0788C48.5115 43.8513 47.9579 43.7348 47.3985 43.737H47.4027Z" fill="#CF182A"/>
<path d="M30.6024 36.3701C29.588 36.3707 28.5894 36.1176 27.6978 35.6338C26.8061 35.1499 26.0497 34.4507 25.4973 33.5999C24.9449 32.749 24.6141 31.7734 24.5351 30.7621C24.4561 29.7507 24.6313 28.7356 25.0447 27.8092C25.4582 26.8828 26.0969 26.0746 26.9026 25.4581C27.7082 24.8417 28.6553 24.4365 29.6575 24.2795C30.6598 24.1226 31.6854 24.2188 32.6409 24.5595C33.5965 24.9002 34.4516 25.4745 35.1285 26.2301C35.9134 27.1042 36.4281 28.1869 36.6106 29.3474C36.793 30.5079 36.6353 31.6963 36.1564 32.769C35.6776 33.8418 34.8982 34.7528 33.9126 35.3918C32.9269 36.0309 31.7771 36.3707 30.6024 36.3701ZM30.6024 26.3176C29.6927 26.3187 28.811 26.632 28.1045 27.205C27.3981 27.7781 26.9097 28.5763 26.721 29.4662C26.5323 30.3561 26.6547 31.2838 27.0678 32.0942C27.4808 32.9047 28.1595 33.5489 28.9905 33.9191C29.8214 34.2894 30.7542 34.3632 31.633 34.1283C32.5119 33.8934 33.2835 33.3641 33.8189 32.6287C34.3544 31.8933 34.6212 30.9964 34.5749 30.0879C34.5285 29.1794 34.1718 28.3143 33.5643 27.6372C33.1908 27.2207 32.7335 26.8878 32.2223 26.6604C31.7111 26.433 31.1577 26.3162 30.5982 26.3176H30.6024Z" fill="#CF182A"/>
<path d="M24.9525 53.7398C24.7428 53.7402 24.5376 53.678 24.3634 53.5612C24.1892 53.4443 24.0538 53.2781 23.9746 53.0839C23.8953 52.8897 23.8759 52.6762 23.9186 52.4708C23.9614 52.2654 24.0645 52.0775 24.2147 51.9311L52.3116 24.5594C52.5119 24.3637 52.7817 24.2556 53.0617 24.2589C53.3417 24.2621 53.609 24.3765 53.8046 24.5768C54.0003 24.7771 54.1084 25.0469 54.1052 25.3269C54.1019 25.6069 53.9875 25.8742 53.7872 26.0698L25.6883 53.4405C25.4914 53.6324 25.2274 53.7398 24.9525 53.7398Z" fill="#CF182A"/>
</svg>
