<svg width="96" height="96" viewBox="0 0 96 96" fill="none" xmlns="http://www.w3.org/2000/svg">
<g clip-path="url(#clip0_25_5668)">
<path d="M82.4219 74.5759C80.7951 74.5771 79.2045 74.0958 77.8513 73.1929C76.498 72.2899 75.443 71.0059 74.8196 69.5033C74.1963 68.0006 74.0325 66.3469 74.3492 64.7512C74.6658 63.1555 75.4486 61.6896 76.5985 60.5388C77.7484 59.3881 79.2138 58.6042 80.8093 58.2864C82.4047 57.9686 84.0586 58.1311 85.5617 58.7534C87.0648 59.3757 88.3496 60.4297 89.2535 61.7823C90.1574 63.1349 90.6399 64.7251 90.6399 66.3519C90.6388 68.5317 89.7729 70.622 88.2321 72.1639C86.6913 73.7058 84.6017 74.5733 82.4219 74.5759ZM82.4219 61.1279C81.3884 61.1267 80.3778 61.4321 79.518 62.0054C78.6581 62.5787 77.9876 63.3942 77.5913 64.3486C77.195 65.3031 77.0907 66.3536 77.2915 67.3674C77.4924 68.3812 77.9895 69.3125 78.7199 70.0437C79.4502 70.7749 80.381 71.2731 81.3945 71.4751C82.4081 71.6772 83.4587 71.5741 84.4136 71.1788C85.3686 70.7836 86.1848 70.1141 86.7591 69.2549C87.3334 68.3956 87.6399 67.3854 87.6399 66.3519C87.6394 64.9676 87.0896 63.6401 86.1114 62.6607C85.1331 61.6813 83.8062 61.13 82.4219 61.1279Z" fill="#CF182A"/>
<path d="M39.0841 74.5759C37.4572 74.5775 35.8663 74.0965 34.5129 73.1938C33.1594 72.2911 32.104 71.0073 31.4804 69.5047C30.8567 68.0021 30.6927 66.3482 31.0091 64.7524C31.3255 63.1566 32.1081 61.6905 33.258 60.5395C34.4078 59.3886 35.8732 58.6045 37.4687 58.2865C39.0642 57.9686 40.7182 58.131 42.2214 58.7532C43.7246 59.3754 45.0095 60.4295 45.9135 61.7821C46.8175 63.1347 47.3001 64.725 47.3001 66.3519C47.2985 68.5312 46.4326 70.6209 44.8924 72.1626C43.3522 73.7043 41.2633 74.5722 39.0841 74.5759ZM39.0841 61.1279C38.0505 61.1263 37.0397 61.4314 36.1796 62.0044C35.3194 62.5775 34.6486 63.3928 34.252 64.3472C33.8554 65.3017 33.7508 66.3523 33.9515 67.3662C34.1521 68.3801 34.649 69.3116 35.3793 70.043C36.1096 70.7744 37.0404 71.2727 38.054 71.475C39.0675 71.6772 40.1183 71.5742 41.0733 71.179C42.0284 70.7839 42.8447 70.1143 43.4191 69.2551C43.9935 68.3958 44.3001 67.3855 44.3001 66.3519C44.299 64.9681 43.7494 63.6412 42.7716 62.662C41.7939 61.6828 40.4678 61.1311 39.0841 61.1279Z" fill="#CF182A"/>
<path d="M93.2418 67.8519H89.1398C88.742 67.8519 88.3604 67.6939 88.0791 67.4126C87.7978 67.1313 87.6398 66.7497 87.6398 66.3519C87.6398 65.9541 87.7978 65.5726 88.0791 65.2912C88.3604 65.0099 88.742 64.8519 89.1398 64.8519H92.8178V56.8979C92.8168 55.8225 92.5415 54.7652 92.0178 53.8259L83.8978 39.2679C83.8284 39.1437 83.7272 39.0402 83.6045 38.9681C83.4818 38.896 83.3421 38.858 83.1998 38.8579H72.1338V64.8579H75.7058C76.1036 64.8579 76.4851 65.0159 76.7664 65.2973C77.0478 65.5786 77.2058 65.9601 77.2058 66.3579C77.2058 66.7557 77.0478 67.1373 76.7664 67.4186C76.4851 67.6999 76.1036 67.8579 75.7058 67.8579H70.6338C70.236 67.8579 69.8544 67.6999 69.5731 67.4186C69.2918 67.1373 69.1338 66.7557 69.1338 66.3579V37.3579C69.1338 36.9601 69.2918 36.5786 69.5731 36.2972C69.8544 36.0159 70.236 35.8579 70.6338 35.8579H83.1998C83.8765 35.8576 84.541 36.038 85.1247 36.3804C85.7084 36.7229 86.19 37.215 86.5198 37.8059L94.6378 52.3659C95.4096 53.7518 95.815 55.3116 95.8158 56.8979V65.2779C95.8147 65.9603 95.5432 66.6143 95.0607 67.0968C94.5782 67.5793 93.9241 67.8509 93.2418 67.8519Z" fill="#CF182A"/>
<path d="M32.3659 67.8519H17.9839C17.5861 67.8519 17.2045 67.6939 16.9232 67.4126C16.6419 67.1313 16.4839 66.7497 16.4839 66.3519V54.8159C16.4839 54.4181 16.6419 54.0366 16.9232 53.7553C17.2045 53.474 17.5861 53.3159 17.9839 53.3159C18.3817 53.3159 18.7632 53.474 19.0445 53.7553C19.3259 54.0366 19.4839 54.4181 19.4839 54.8159V64.8519H32.3659C32.7637 64.8519 33.1452 65.0099 33.4265 65.2913C33.7079 65.5726 33.8659 65.9541 33.8659 66.3519C33.8659 66.7497 33.7079 67.1313 33.4265 67.4126C33.1452 67.6939 32.7637 67.8519 32.3659 67.8519Z" fill="#CF182A"/>
<path d="M17.9839 49.4941C17.5861 49.4941 17.2045 49.3361 16.9232 49.0548C16.6419 48.7735 16.4839 48.3919 16.4839 47.9941V37.9221C16.4839 37.5243 16.6419 37.1428 16.9232 36.8615C17.2045 36.5802 17.5861 36.4221 17.9839 36.4221C18.3817 36.4221 18.7632 36.5802 19.0445 36.8615C19.3259 37.1428 19.4839 37.5243 19.4839 37.9221V48.0001C19.4823 48.3969 19.3236 48.7769 19.0424 49.0569C18.7613 49.3369 18.3807 49.4941 17.9839 49.4941Z" fill="#CF182A"/>
<path d="M70.6339 67.8521H45.7999C45.4021 67.8521 45.0205 67.6941 44.7392 67.4128C44.4579 67.1315 44.2999 66.7499 44.2999 66.3521C44.2999 65.9543 44.4579 65.5727 44.7392 65.2914C45.0205 65.0101 45.4021 64.8521 45.7999 64.8521H69.1339V25.6101H19.4839V31.7881C19.4839 32.1859 19.3259 32.5675 19.0445 32.8488C18.7632 33.1301 18.3817 33.2881 17.9839 33.2881C17.5861 33.2881 17.2045 33.1301 16.9232 32.8488C16.6419 32.5675 16.4839 32.1859 16.4839 31.7881V25.3341C16.4849 24.6116 16.7726 23.9191 17.2836 23.4084C17.7947 22.8977 18.4874 22.6106 19.2099 22.6101H69.4099C70.132 22.6112 70.8243 22.8985 71.3349 23.4091C71.8455 23.9197 72.1328 24.612 72.1339 25.3341V66.3521C72.1339 66.7499 71.9759 67.1315 71.6945 67.4128C71.4132 67.6941 71.0317 67.8521 70.6339 67.8521Z" fill="#CF182A"/>
<path d="M23.914 56.3159H4.87598C4.47815 56.3159 4.09662 56.1579 3.81532 55.8766C3.53401 55.5953 3.37598 55.2137 3.37598 54.8159C3.37598 54.4181 3.53401 54.0366 3.81532 53.7553C4.09662 53.474 4.47815 53.3159 4.87598 53.3159H23.914C24.3118 53.3159 24.6933 53.474 24.9746 53.7553C25.2559 54.0366 25.414 54.4181 25.414 54.8159C25.414 55.2137 25.2559 55.5953 24.9746 55.8766C24.6933 56.1579 24.3118 56.3159 23.914 56.3159Z" fill="#CF182A"/>
<path d="M39.0841 49.4939H12.5181C12.1202 49.4939 11.7387 49.3359 11.4574 49.0546C11.1761 48.7733 11.0181 48.3917 11.0181 47.9939C11.0181 47.5961 11.1761 47.2145 11.4574 46.9332C11.7387 46.6519 12.1202 46.4939 12.5181 46.4939H39.0841C39.4819 46.4939 39.8634 46.6519 40.1447 46.9332C40.426 47.2145 40.5841 47.5961 40.5841 47.9939C40.5841 48.3917 40.426 48.7733 40.1447 49.0546C39.8634 49.3359 39.4819 49.4939 39.0841 49.4939Z" fill="#CF182A"/>
<path d="M11.6919 41.574H1.31787C0.920046 41.574 0.538515 41.4159 0.257211 41.1346C-0.0240937 40.8533 -0.182129 40.4718 -0.182129 40.074C-0.182129 39.6761 -0.0240937 39.2946 0.257211 39.0133C0.538515 38.732 0.920046 38.574 1.31787 38.574H11.6919C12.0897 38.574 12.4712 38.732 12.7525 39.0133C13.0338 39.2946 13.1919 39.6761 13.1919 40.074C13.1919 40.4718 13.0338 40.8533 12.7525 41.1346C12.4712 41.4159 12.0897 41.574 11.6919 41.574Z" fill="#CF182A"/>
<path d="M28.3262 33.2881H10.0142C9.61634 33.2881 9.2348 33.1301 8.9535 32.8487C8.6722 32.5674 8.51416 32.1859 8.51416 31.7881C8.51416 31.3903 8.6722 31.0087 8.9535 30.7274C9.2348 30.4461 9.61634 30.2881 10.0142 30.2881H28.3262C28.724 30.2881 29.1055 30.4461 29.3868 30.7274C29.6681 31.0087 29.8262 31.3903 29.8262 31.7881C29.8262 32.1859 29.6681 32.5674 29.3868 32.8487C29.1055 33.1301 28.724 33.2881 28.3262 33.2881Z" fill="#CF182A"/>
</g>
<defs>
<clipPath id="clip0_25_5668">
<rect width="96" height="96" fill="white"/>
</clipPath>
</defs>
</svg>
